<svg id="Layer_1" data-name="Layer 1" xmlns="http://www.w3.org/2000/svg" viewBox="0 0 3649.77 3636.85"><defs><style>.cls-1{fill:#f0bd1b;}.cls-2{fill:#3f3393;}</style></defs><polygon class="cls-1" points="1107.65 564.05 508.92 1218.52 444.44 1721.23 1255.03 1721.23 1733.8 1218.52 1761.65 564.05 1669.54 326.93 1107.65 564.05"/><path class="cls-2" d="M1956.65,3669.8c-446.55,0-893.11-170-1233.07-509.94-329.37-329.37-510.76-767.29-510.76-1233.08S394.21,1023.07,723.58,693.7c679.92-679.92,1786.23-679.91,2466.15,0s679.92,1786.23,0,2466.16C2849.77,3499.82,2403.22,3669.8,1956.65,3669.8Zm0-3163.38c-363.89,0-727.78,138.51-1004.81,415.54-268.4,268.4-416.22,625.25-416.22,1004.82S683.44,2663.2,951.84,2931.6c554,554,1455.57,554,2009.63,0h0c554.06-554.06,554.06-1455.58,0-2009.64C2684.45,644.93,2320.55,506.42,1956.65,506.42Z" transform="translate(-49.9 -32.94)"/><path class="cls-2" d="M871.66,1950C579.1,1950,304,1836.07,97.17,1629.2a161.4,161.4,0,0,1,228.26-228.26c145.9,145.91,339.89,226.26,546.23,226.26s400.33-80.35,546.24-226.26c301.19-301.19,301.19-791.27,0-1092.47A161.4,161.4,0,0,1,1646.16,80.21C1853,287.09,1967,562.14,1967,854.71S1853,1422.33,1646.16,1629.2,1164.23,1950,871.66,1950Z" transform="translate(-49.9 -32.94)"/></svg>