<?xml version="1.0" encoding="utf-8"?>
<!-- Generator: Adobe Illustrator 26.0.2, SVG Export Plug-In . SVG Version: 6.00 Build 0)  -->
<svg version="1.1" id="Layer_1" xmlns="http://www.w3.org/2000/svg" xmlns:xlink="http://www.w3.org/1999/xlink" x="0px" y="0px"
	 viewBox="0 0 1920 2245.87" style="enable-background:new 0 0 1920 2245.87;" xml:space="preserve">
<style type="text/css">
	.st0{opacity:0.15;}
	.st1{clip-path:url(#SVGID_00000150088251735221289580000011309247466122904763_);}
	.st2{fill:none;stroke:#403692;stroke-width:4;stroke-miterlimit:10;}
	.st3{fill:none;stroke:#493F97;stroke-width:3.7661;stroke-miterlimit:10;}
	.st4{fill:none;stroke:#53499C;stroke-width:3.5321;stroke-miterlimit:10;}
	.st5{fill:none;stroke:#5D53A1;stroke-width:3.2982;stroke-miterlimit:10;}
	.st6{fill:none;stroke:#675CA6;stroke-width:3.0642;stroke-miterlimit:10;}
	.st7{fill:none;stroke:#7166AC;stroke-width:2.8303;stroke-miterlimit:10;}
	.st8{fill:none;stroke:#7B70B1;stroke-width:2.5964;stroke-miterlimit:10;}
	.st9{fill:none;stroke:#857BB7;stroke-width:2.3624;stroke-miterlimit:10;}
	.st10{fill:none;stroke:#8F86BE;stroke-width:2.1285;stroke-miterlimit:10;}
	.st11{fill:none;stroke:#9B92C5;stroke-width:1.8946;stroke-miterlimit:10;}
	.st12{fill:none;stroke:#A69ECC;stroke-width:1.6606;stroke-miterlimit:10;}
	.st13{fill:none;stroke:#B3ACD4;stroke-width:1.4267;stroke-miterlimit:10;}
	.st14{fill:none;stroke:#C0BBDC;stroke-width:1.1927;stroke-miterlimit:10;}
	.st15{fill:none;stroke:#CECAE4;stroke-width:0.9588;stroke-miterlimit:10;}
	.st16{fill:none;stroke:#DCD9EC;stroke-width:0.7249;stroke-miterlimit:10;}
	.st17{fill:none;stroke:#ECEAF5;stroke-width:0.4909;stroke-miterlimit:10;}
	.st18{fill:none;stroke:#FFFFFF;stroke-width:0.257;stroke-miterlimit:10;}
</style>
<g>
	<g class="st0">
		<defs>
			<rect id="SVGID_1_" x="-71.01" y="180.53" class="st0" width="2105.41" height="2110.71"/>
		</defs>
		<clipPath id="SVGID_00000109007082250196542770000002948757680921230010_">
			<use xlink:href="#SVGID_1_"  style="overflow:visible;"/>
		</clipPath>
		<g style="clip-path:url(#SVGID_00000109007082250196542770000002948757680921230010_);">
			<g>
				<path class="st2" d="M-260.56,597.81C73.93-324.03,1355.97,814.2,2499.11-101.93"/>
				<path class="st3" d="M-259.53,734.94C74.96-186.89,1357,951.33,2500.14,35.2"/>
				<path class="st4" d="M-258.5,872.08c334.5-921.84,1616.53,216.39,2759.68-699.74"/>
				<path class="st5" d="M-257.47,1009.21C77.02,87.37,1359.06,1225.6,2502.2,309.47"/>
				<path class="st6" d="M-256.44,1146.35c334.5-921.84,1616.53,216.39,2759.68-699.74"/>
				<path class="st7" d="M-255.41,1283.48c334.5-921.84,1616.53,216.39,2759.68-699.74"/>
				<path class="st8" d="M-254.38,1420.61c334.5-921.84,1616.53,216.39,2759.68-699.74"/>
				<path class="st9" d="M-253.35,1557.75c334.5-921.84,1616.53,216.39,2759.68-699.74"/>
				<path class="st10" d="M-252.32,1694.88c334.5-921.84,1616.53,216.39,2759.68-699.74"/>
				<path class="st11" d="M-251.29,1832.02c334.5-921.84,1616.53,216.39,2759.68-699.74"/>
				<path class="st12" d="M-250.26,1969.15c334.5-921.84,1616.53,216.39,2759.68-699.74"/>
				<path class="st13" d="M-249.23,2106.29c334.5-921.84,1616.53,216.39,2759.68-699.74"/>
				<path class="st14" d="M-248.2,2243.42c334.5-921.84,1616.53,216.39,2759.68-699.74"/>
				<path class="st15" d="M-247.17,2380.55c334.5-921.84,1616.53,216.39,2759.68-699.74"/>
				<path class="st16" d="M-246.14,2517.69c334.5-921.84,1616.53,216.39,2759.68-699.74"/>
				<path class="st17" d="M-245.11,2654.82c334.5-921.84,1616.53,216.39,2759.68-699.74"/>
				<path class="st18" d="M-244.08,2791.96c334.5-921.84,1616.53,216.39,2759.68-699.74"/>
			</g>
		</g>
	</g>
</g>
</svg>
