<svg id="Layer_1" data-name="Layer 1" xmlns="http://www.w3.org/2000/svg" viewBox="0 0 3692.21 3692.23"><defs><style>.cls-1{fill:#3f3393;}</style></defs><path class="cls-1" d="M1637.57,3755.64c-563.48,0-1093.23-219.44-1491.66-617.88-121.4-121.4-121.39-318.22,0-439.62s318.24-121.39,439.62,0c281,281,654.63,435.77,1052,435.77s771-154.76,1052-435.77c580.09-580.1,580.09-1524,0-2104.08-121.39-121.39-121.39-318.22,0-439.62s318.22-121.39,439.62,0c398.44,398.44,617.86,928.19,617.86,1491.66s-219.42,1093.22-617.86,1491.65S2201.05,3755.64,1637.57,3755.64Z" transform="translate(-54.86 -63.41)"/></svg>