<svg id="Layer_1" data-name="Layer 1" xmlns="http://www.w3.org/2000/svg" viewBox="0 0 943.51 306.77"><defs><style>.cls-1{fill:#f0bd1b;}.cls-2{fill:#3f3393;}</style></defs><polygon class="cls-1" points="93.43 47.58 42.93 102.78 37.49 145.19 105.86 145.19 146.25 102.78 148.59 47.58 140.82 27.58 93.43 47.58"/><path class="cls-2" d="M371.59,327.25V182.37a11.46,11.46,0,1,1,22.91,0V323.51H470a10,10,0,1,1,0,20.05H387.89a16.31,16.31,0,0,1-16.3-16.31" transform="translate(-8.29 -98.68)"/><path class="cls-2" d="M520.43,323.42V263H635.85a10.07,10.07,0,0,0,10.07-10.07h0a10.07,10.07,0,0,0-10.07-10.07H520.43v-51.8H648.87a10.29,10.29,0,0,0,10.39-9.4,10.07,10.07,0,0,0-10-10.74H510.89a13.38,13.38,0,0,0-13.37,13.37V330.2a13.37,13.37,0,0,0,13.37,13.36h139.8a11.46,11.46,0,0,0,11.46-11.45,8.69,8.69,0,0,0-8.69-8.69Z" transform="translate(-8.29 -98.68)"/><path class="cls-2" d="M679.39,332.11V183.19a11.45,11.45,0,0,1,11.45-11.45h2.71a11.43,11.43,0,0,1,8.32,3.58L797.28,276v32.21L696.09,201.57l6.21-2.63V332.11a11.46,11.46,0,0,1-22.91,0m106.91,0V183.19a11.45,11.45,0,0,1,11.45-11.45h0a11.45,11.45,0,0,1,11.45,11.45V332.11a11.45,11.45,0,0,1-11.45,11.45h0a11.45,11.45,0,0,1-11.45-11.45" transform="translate(-8.29 -98.68)"/><path class="cls-2" d="M839.64,327.83A10.19,10.19,0,0,1,853,318.11l1.6.5a102,102,0,0,0,16,3.37,142.64,142.64,0,0,0,18.73,1.16,85.5,85.5,0,0,0,20.4-2.21q9-2.21,14.08-7.42T928.89,299q0-11.13-6.56-16t-19.69-7.19l-21-3.72a71.13,71.13,0,0,1-21.95-7.54,41.84,41.84,0,0,1-16-15.2q-6-9.74-6-24.59,0-18.57,8.95-30.52t25.06-17.63q16.11-5.68,37.59-5.69a107.65,107.65,0,0,1,19.92,1.86q4.83.9,8.83,2a10.24,10.24,0,0,1,7.52,9.85v.14a10.21,10.21,0,0,1-13.12,9.78c-1.16-.34-2.26-.66-3.23-.92a82.31,82.31,0,0,0-20.88-2.32,84.54,84.54,0,0,0-24.22,3.25Q873.29,197.83,867,205t-6.33,18.8q0,14.63,7.88,20.42t21.71,8.35l21,3.72a65.58,65.58,0,0,1,21.23,7.19,38.06,38.06,0,0,1,14.2,13.57q5.13,8.48,5.13,21a42.16,42.16,0,0,1-4.53,20A39.58,39.58,0,0,1,934.5,332.3a58.58,58.58,0,0,1-19.69,8.47,107.93,107.93,0,0,1-25.53,2.79,148.23,148.23,0,0,1-19-1.16,161.51,161.51,0,0,1-16.71-3q-3.5-.84-6.68-1.77a10.18,10.18,0,0,1-7.28-9.78" transform="translate(-8.29 -98.68)"/><path class="cls-2" d="M169.12,405.44a147,147,0,0,1-104-251c57.35-57.35,150.66-57.35,208,0s57.35,150.67,0,208A146.64,146.64,0,0,1,169.12,405.44Zm0-266.83a119.84,119.84,0,1,0,84.76,204.57h0a119.81,119.81,0,0,0-84.76-204.57Z" transform="translate(-8.29 -98.68)"/><path class="cls-2" d="M77.61,260.38a91.78,91.78,0,0,1-65.33-27.06,13.61,13.61,0,0,1,19.25-19.25,65.16,65.16,0,0,0,92.15-92.15,13.62,13.62,0,1,1,19.25-19.26A92.39,92.39,0,0,1,77.61,260.38Z" transform="translate(-8.29 -98.68)"/></svg>