<svg id="Layer_1" data-name="Layer 1" xmlns="http://www.w3.org/2000/svg" viewBox="0 0 932.51 303.19"><defs><style>.cls-1{fill:#f0bd1b;}.cls-2{fill:#fff;}</style></defs><polygon class="cls-1" points="85.67 48.69 35.28 102.18 29.86 143.26 98.07 143.26 138.37 102.18 140.71 48.69 132.96 29.31 85.67 48.69"/><path class="cls-2" d="M371.83,334.51V191.32a11.32,11.32,0,0,1,22.64,0v139.5h74.58a9.91,9.91,0,1,1,0,19.81H387.94a16.11,16.11,0,0,1-16.11-16.12" transform="translate(-12.76 -108.61)"/><path class="cls-2" d="M518.93,330.73V271H633a10,10,0,0,0,10-10h0a10,10,0,0,0-10-10H518.93V199.91H645.87a10.18,10.18,0,0,0,10.27-9.3A10,10,0,0,0,646.21,180H509.5a13.21,13.21,0,0,0-13.21,13.21V337.43a13.21,13.21,0,0,0,13.21,13.2H647.68A11.32,11.32,0,0,0,659,339.31a8.59,8.59,0,0,0-8.59-8.58Z" transform="translate(-12.76 -108.61)"/><path class="cls-2" d="M676,339.31V192.14a11.32,11.32,0,0,1,11.32-11.32H690a11.29,11.29,0,0,1,8.21,3.53l94.3,99.54v31.84l-100-105.43,6.13-2.6V339.31a11.32,11.32,0,1,1-22.64,0m105.66,0V192.14A11.32,11.32,0,0,1,793,180.82h0a11.31,11.31,0,0,1,11.32,11.32V339.31A11.31,11.31,0,0,1,793,350.63h0a11.32,11.32,0,0,1-11.32-11.32" transform="translate(-12.76 -108.61)"/><path class="cls-2" d="M834.42,335.09a10.08,10.08,0,0,1,13.17-9.61l1.57.5A100,100,0,0,0,865,329.3a139.4,139.4,0,0,0,18.51,1.15,84.79,84.79,0,0,0,20.17-2.18q8.83-2.17,13.91-7.34t5.07-14.33q0-11-6.48-15.83t-19.46-7.11L875.93,280a70.48,70.48,0,0,1-21.7-7.45,41.45,41.45,0,0,1-15.8-15q-5.89-9.63-5.89-24.31,0-18.35,8.84-30.16t24.77-17.43Q882.07,180,903.29,180a107,107,0,0,1,19.7,1.83q4.75.9,8.72,2a10.12,10.12,0,0,1,7.43,9.73v.14a10.09,10.09,0,0,1-13,9.67c-1.15-.34-2.24-.65-3.19-.9a81,81,0,0,0-20.64-2.3,83.34,83.34,0,0,0-23.94,3.21q-10.74,3.21-17,10.32t-6.25,18.58q0,14.44,7.78,20.18t21.46,8.26l20.76,3.67a64.83,64.83,0,0,1,21,7.11,37.72,37.72,0,0,1,14,13.41q5.06,8.38,5.07,20.76a41.57,41.57,0,0,1-4.49,19.72,39.18,39.18,0,0,1-12.61,14.11,58.09,58.09,0,0,1-19.46,8.37,107.24,107.24,0,0,1-25.24,2.75,145,145,0,0,1-18.75-1.15,155.59,155.59,0,0,1-16.51-3q-3.47-.83-6.6-1.75a10.06,10.06,0,0,1-7.2-9.66" transform="translate(-12.76 -108.61)"/><path class="cls-2" d="M171.72,411.79A145.32,145.32,0,0,1,68.93,163.69c56.68-56.68,148.91-56.68,205.59,0s56.68,148.91,0,205.59A144.93,144.93,0,0,1,171.72,411.79Zm0-263.71a118.44,118.44,0,1,0,83.77,202.17h0a118.41,118.41,0,0,0-83.77-202.17Z" transform="translate(-12.76 -108.61)"/><path class="cls-2" d="M81.27,268.42A90.71,90.71,0,0,1,16.7,241.68a13.46,13.46,0,0,1,19-19,64.4,64.4,0,1,0,91.08-91.07,13.46,13.46,0,1,1,19-19A91.31,91.31,0,0,1,81.27,268.42Z" transform="translate(-12.76 -108.61)"/></svg>