<?xml version="1.0" encoding="utf-8"?>
<!-- Generator: Adobe Illustrator 26.0.2, SVG Export Plug-In . SVG Version: 6.00 Build 0)  -->
<svg version="1.1" id="Layer_1" xmlns="http://www.w3.org/2000/svg" xmlns:xlink="http://www.w3.org/1999/xlink" x="0px" y="0px"
	 viewBox="0 0 2850.35 3091.46" style="enable-background:new 0 0 2850.35 3091.46;" xml:space="preserve">
<style type="text/css">
	.st0{fill:#3F3393;}
</style>
<g>
	<path class="st0" d="M650.52,3069.61c-563.48,0-1093.22-219.43-1491.66-617.88c-121.4-121.4-121.39-318.22,0-439.61
		c121.4-121.39,318.24-121.4,439.62,0.01c281.01,281.01,654.62,435.77,1052.03,435.77s771.02-154.76,1052.03-435.77
		c580.09-580.1,580.09-1523.98,0-2104.08c-121.39-121.4-121.39-318.22,0-439.62c121.4-121.39,318.22-121.39,439.62,0
		c398.43,398.43,617.85,928.18,617.85,1491.66s-219.42,1093.22-617.85,1491.66C1743.75,2850.18,1214,3069.61,650.52,3069.61z"/>
</g>
</svg>
