<svg id="Layer_1" data-name="Layer 1" xmlns="http://www.w3.org/2000/svg" viewBox="0 0 8275.11 2672.15"><defs><style>.cls-1{fill:#fff;}</style></defs><path class="cls-1" d="M549.43,869.61a106.61,106.61,0,1,1,75.29,31.13A106.61,106.61,0,0,1,549.43,869.61ZM563.37,733a86.86,86.86,0,0,0,0,122.7h0a86.73,86.73,0,1,0,0-122.7Z" transform="translate(-518.3 -687.89)"/><path class="cls-1" d="M1050.91,852.84a66.41,66.41,0,0,0,47.29-19.59,9.85,9.85,0,0,0-13.94-13.93,47.17,47.17,0,1,1-66.7-66.71,9.85,9.85,0,0,0-13.94-13.93,66.87,66.87,0,0,0,47.29,114.16Z" transform="translate(-518.3 -687.89)"/><path class="cls-1" d="M1401.07,869.61a106.61,106.61,0,1,1,75.29,31.13A106.61,106.61,0,0,1,1401.07,869.61ZM1415,733a86.86,86.86,0,0,0,0,122.7h0a86.73,86.73,0,1,0,0-122.7Z" transform="translate(-518.3 -687.89)"/><path class="cls-1" d="M1902.55,852.84a66.43,66.43,0,0,0,47.29-19.59,9.85,9.85,0,0,0-13.94-13.93,47.17,47.17,0,0,1-66.71-66.71,9.85,9.85,0,0,0-13.93-13.93,66.87,66.87,0,0,0,47.29,114.16Z" transform="translate(-518.3 -687.89)"/><path class="cls-1" d="M2252.71,869.61A106.61,106.61,0,1,1,2328,900.74,106.59,106.59,0,0,1,2252.71,869.61ZM2266.64,733a86.86,86.86,0,0,0,0,122.7h0a86.73,86.73,0,1,0,0-122.7Z" transform="translate(-518.3 -687.89)"/><path class="cls-1" d="M2754.18,852.84a66.39,66.39,0,0,0,47.29-19.59,9.85,9.85,0,1,0-13.93-13.93,47.17,47.17,0,0,1-66.71-66.71,9.85,9.85,0,0,0-13.93-13.93,66.87,66.87,0,0,0,47.28,114.16Z" transform="translate(-518.3 -687.89)"/><path class="cls-1" d="M3104.35,869.61a106.6,106.6,0,1,1,75.28,31.13A106.59,106.59,0,0,1,3104.35,869.61ZM3118.28,733a86.86,86.86,0,0,0,0,122.7h0a86.73,86.73,0,1,0,0-122.7Z" transform="translate(-518.3 -687.89)"/><path class="cls-1" d="M3605.82,852.84a66.39,66.39,0,0,0,47.29-19.59,9.85,9.85,0,1,0-13.94-13.93,47.17,47.17,0,1,1-66.7-66.71,9.85,9.85,0,0,0-13.94-13.93,66.87,66.87,0,0,0,47.29,114.16Z" transform="translate(-518.3 -687.89)"/><path class="cls-1" d="M3956,869.61a106.61,106.61,0,1,1,75.29,31.13A106.61,106.61,0,0,1,3956,869.61ZM3969.92,733a86.86,86.86,0,0,0,0,122.7h0a86.73,86.73,0,1,0,0-122.7Z" transform="translate(-518.3 -687.89)"/><path class="cls-1" d="M4457.46,852.84a66.41,66.41,0,0,0,47.29-19.59,9.85,9.85,0,1,0-13.94-13.93,47.17,47.17,0,0,1-66.7-66.71,9.85,9.85,0,0,0-13.94-13.93,66.87,66.87,0,0,0,47.29,114.16Z" transform="translate(-518.3 -687.89)"/><path class="cls-1" d="M4807.62,869.61a106.61,106.61,0,1,1,75.29,31.13A106.61,106.61,0,0,1,4807.62,869.61ZM4821.56,733a86.86,86.86,0,0,0,0,122.7h0a86.73,86.73,0,1,0,0-122.7Z" transform="translate(-518.3 -687.89)"/><path class="cls-1" d="M5309.1,852.84a66.41,66.41,0,0,0,47.29-19.59,9.85,9.85,0,0,0-13.94-13.93,47.17,47.17,0,0,1-66.7-66.71,9.85,9.85,0,1,0-13.94-13.93,66.87,66.87,0,0,0,47.29,114.16Z" transform="translate(-518.3 -687.89)"/><path class="cls-1" d="M5659.26,869.61a106.61,106.61,0,1,1,75.29,31.13A106.59,106.59,0,0,1,5659.26,869.61ZM5673.2,733a86.86,86.86,0,0,0,0,122.7h0a86.73,86.73,0,1,0,0-122.7Z" transform="translate(-518.3 -687.89)"/><path class="cls-1" d="M6160.74,852.84A66.39,66.39,0,0,0,6208,833.25a9.85,9.85,0,0,0-13.93-13.93,47.17,47.17,0,0,1-66.71-66.71,9.85,9.85,0,0,0-13.93-13.93,66.87,66.87,0,0,0,47.29,114.16Z" transform="translate(-518.3 -687.89)"/><path class="cls-1" d="M6510.9,869.61a106.6,106.6,0,1,1,75.29,31.13A106.59,106.59,0,0,1,6510.9,869.61ZM6524.83,733a86.86,86.86,0,0,0,0,122.7h0a86.73,86.73,0,1,0,0-122.7Z" transform="translate(-518.3 -687.89)"/><path class="cls-1" d="M7012.37,852.84a66.39,66.39,0,0,0,47.29-19.59,9.85,9.85,0,0,0-13.93-13.93A47.17,47.17,0,0,1,6979,752.61a9.85,9.85,0,0,0-13.94-13.93,66.87,66.87,0,0,0,47.29,114.16Z" transform="translate(-518.3 -687.89)"/><path class="cls-1" d="M7362.53,869.61a106.61,106.61,0,1,1,75.29,31.13A106.61,106.61,0,0,1,7362.53,869.61ZM7376.47,733a86.86,86.86,0,0,0,0,122.7h0a86.73,86.73,0,1,0,0-122.7Z" transform="translate(-518.3 -687.89)"/><path class="cls-1" d="M7864,852.84a66.41,66.41,0,0,0,47.29-19.59,9.85,9.85,0,0,0-13.94-13.93,47.17,47.17,0,0,1-66.7-66.71,9.85,9.85,0,1,0-13.94-13.93A66.87,66.87,0,0,0,7864,852.84Z" transform="translate(-518.3 -687.89)"/><path class="cls-1" d="M8214.17,869.61a106.61,106.61,0,1,1,75.29,31.13A106.61,106.61,0,0,1,8214.17,869.61ZM8228.11,733a86.86,86.86,0,0,0,0,122.7h0a86.73,86.73,0,1,0,0-122.7Z" transform="translate(-518.3 -687.89)"/><path class="cls-1" d="M8715.65,852.84a66.41,66.41,0,0,0,47.29-19.59A9.85,9.85,0,1,0,8749,819.32a47.17,47.17,0,0,1-66.7-66.71,9.85,9.85,0,0,0-13.94-13.93,66.87,66.87,0,0,0,47.29,114.16Z" transform="translate(-518.3 -687.89)"/><path class="cls-1" d="M8283,1325.54a66.41,66.41,0,0,1-47.29-19.59A9.85,9.85,0,0,1,8249.6,1292a47.17,47.17,0,1,0,66.7-66.71,9.85,9.85,0,0,1,13.94-13.93A66.88,66.88,0,0,1,8283,1325.54Z" transform="translate(-518.3 -687.89)"/><path class="cls-1" d="M985.07,1342.31a106.61,106.61,0,1,1,75.29,31.13A106.61,106.61,0,0,1,985.07,1342.31ZM999,1205.67a86.86,86.86,0,0,0,0,122.7h0a86.73,86.73,0,1,0,0-122.7Z" transform="translate(-518.3 -687.89)"/><path class="cls-1" d="M7431.31,1325.54A66.41,66.41,0,0,1,7384,1306,9.85,9.85,0,1,1,7398,1292a47.17,47.17,0,0,0,66.7-66.71,9.85,9.85,0,0,1,13.94-13.93,66.88,66.88,0,0,1-47.29,114.16Z" transform="translate(-518.3 -687.89)"/><path class="cls-1" d="M1836.71,1342.31a106.61,106.61,0,1,1,75.29,31.13A106.59,106.59,0,0,1,1836.71,1342.31Zm13.94-136.64a86.86,86.86,0,0,0,0,122.7h0a86.73,86.73,0,1,0,0-122.7Z" transform="translate(-518.3 -687.89)"/><path class="cls-1" d="M6579.67,1325.54a66.43,66.43,0,0,1-47.29-19.59,9.85,9.85,0,0,1,13.94-13.93,47.17,47.17,0,0,0,66.71-66.71,9.85,9.85,0,0,1,13.93-13.93,66.88,66.88,0,0,1-47.29,114.16Z" transform="translate(-518.3 -687.89)"/><path class="cls-1" d="M2688.35,1342.31a106.6,106.6,0,1,1,75.29,31.13A106.59,106.59,0,0,1,2688.35,1342.31Zm13.93-136.64a86.86,86.86,0,0,0,0,122.7h0a86.73,86.73,0,1,0,0-122.7Z" transform="translate(-518.3 -687.89)"/><path class="cls-1" d="M5728,1325.54a66.39,66.39,0,0,1-47.29-19.59,9.85,9.85,0,0,1,13.93-13.93,47.17,47.17,0,0,0,66.71-66.71,9.85,9.85,0,1,1,13.93-13.93A66.88,66.88,0,0,1,5728,1325.54Z" transform="translate(-518.3 -687.89)"/><path class="cls-1" d="M3540,1342.31a106.61,106.61,0,1,1,75.29,31.13A106.61,106.61,0,0,1,3540,1342.31Zm13.94-136.64a86.86,86.86,0,0,0,0,122.7h0a86.73,86.73,0,1,0,0-122.7Z" transform="translate(-518.3 -687.89)"/><path class="cls-1" d="M4876.4,1325.54a66.39,66.39,0,0,1-47.29-19.59,9.85,9.85,0,0,1,13.94-13.93,47.17,47.17,0,0,0,66.7-66.71,9.85,9.85,0,1,1,13.94-13.93,66.88,66.88,0,0,1-47.29,114.16Z" transform="translate(-518.3 -687.89)"/><path class="cls-1" d="M4391.62,1342.31a106.61,106.61,0,1,1,75.29,31.13A106.61,106.61,0,0,1,4391.62,1342.31Zm13.94-136.64a86.86,86.86,0,0,0,0,122.7h0a86.73,86.73,0,1,0,0-122.7Z" transform="translate(-518.3 -687.89)"/><path class="cls-1" d="M4024.76,1325.54a66.41,66.41,0,0,1-47.29-19.59,9.85,9.85,0,1,1,13.94-13.93,47.17,47.17,0,1,0,66.7-66.71,9.85,9.85,0,1,1,13.94-13.93,66.88,66.88,0,0,1-47.29,114.16Z" transform="translate(-518.3 -687.89)"/><path class="cls-1" d="M5243.26,1342.31a106.61,106.61,0,1,1,75.29,31.13A106.61,106.61,0,0,1,5243.26,1342.31Zm13.94-136.64a86.86,86.86,0,0,0,0,122.7h0a86.73,86.73,0,1,0,0-122.7Z" transform="translate(-518.3 -687.89)"/><path class="cls-1" d="M3173.12,1325.54a66.41,66.41,0,0,1-47.29-19.59,9.85,9.85,0,0,1,13.94-13.93,47.17,47.17,0,0,0,66.7-66.71,9.85,9.85,0,1,1,13.94-13.93,66.88,66.88,0,0,1-47.29,114.16Z" transform="translate(-518.3 -687.89)"/><path class="cls-1" d="M6094.9,1342.31a106.61,106.61,0,1,1,75.29,31.13A106.59,106.59,0,0,1,6094.9,1342.31Zm13.93-136.64a86.86,86.86,0,0,0,0,122.7h0a86.73,86.73,0,1,0,0-122.7Z" transform="translate(-518.3 -687.89)"/><path class="cls-1" d="M2321.48,1325.54A66.39,66.39,0,0,1,2274.2,1306a9.85,9.85,0,0,1,13.93-13.93,47.17,47.17,0,0,0,66.71-66.71,9.85,9.85,0,0,1,13.93-13.93,66.88,66.88,0,0,1-47.29,114.16Z" transform="translate(-518.3 -687.89)"/><path class="cls-1" d="M6946.54,1342.31a106.6,106.6,0,1,1,75.28,31.13A106.59,106.59,0,0,1,6946.54,1342.31Zm13.93-136.64a86.86,86.86,0,0,0,0,122.7h0a86.73,86.73,0,1,0,0-122.7Z" transform="translate(-518.3 -687.89)"/><path class="cls-1" d="M1469.85,1325.54a66.39,66.39,0,0,1-47.29-19.59,9.85,9.85,0,0,1,13.93-13.93,47.17,47.17,0,0,0,66.71-66.71,9.85,9.85,0,1,1,13.94-13.93,66.88,66.88,0,0,1-47.29,114.16Z" transform="translate(-518.3 -687.89)"/><path class="cls-1" d="M7798.17,1342.31a106.61,106.61,0,1,1,75.29,31.13A106.61,106.61,0,0,1,7798.17,1342.31Zm13.94-136.64a86.86,86.86,0,0,0,0,122.7h0a86.73,86.73,0,1,0,0-122.7Z" transform="translate(-518.3 -687.89)"/><path class="cls-1" d="M8611.64,1342.31a106.61,106.61,0,1,1,75.29,31.13A106.59,106.59,0,0,1,8611.64,1342.31Zm13.94-136.64a86.86,86.86,0,0,0,0,122.7h0a86.73,86.73,0,1,0,0-122.7Z" transform="translate(-518.3 -687.89)"/><path class="cls-1" d="M618.21,1325.54A66.39,66.39,0,0,1,570.92,1306,9.85,9.85,0,0,1,584.86,1292a47.17,47.17,0,1,0,66.7-66.71,9.85,9.85,0,1,1,13.94-13.93,66.88,66.88,0,0,1-47.29,114.16Z" transform="translate(-518.3 -687.89)"/><path class="cls-1" d="M549.43,1862.91A106.61,106.61,0,1,1,624.72,1894,106.61,106.61,0,0,1,549.43,1862.91Zm13.94-136.64a86.86,86.86,0,0,0,0,122.7h0a86.73,86.73,0,1,0,0-122.7Z" transform="translate(-518.3 -687.89)"/><path class="cls-1" d="M1050.91,1846.14a66.41,66.41,0,0,0,47.29-19.59,9.85,9.85,0,0,0-13.94-13.93,47.17,47.17,0,0,1-66.7-66.71,9.85,9.85,0,0,0-13.94-13.93,66.88,66.88,0,0,0,47.29,114.16Z" transform="translate(-518.3 -687.89)"/><path class="cls-1" d="M1401.07,1862.91a106.61,106.61,0,1,1,75.29,31.13A106.61,106.61,0,0,1,1401.07,1862.91ZM1415,1726.27a86.86,86.86,0,0,0,0,122.7h0a86.73,86.73,0,1,0,0-122.7Z" transform="translate(-518.3 -687.89)"/><path class="cls-1" d="M1902.55,1846.14a66.43,66.43,0,0,0,47.29-19.59,9.85,9.85,0,0,0-13.94-13.93,47.17,47.17,0,0,1-66.71-66.71,9.85,9.85,0,0,0-13.93-13.93,66.88,66.88,0,0,0,47.29,114.16Z" transform="translate(-518.3 -687.89)"/><path class="cls-1" d="M2252.71,1862.91A106.61,106.61,0,1,1,2328,1894,106.59,106.59,0,0,1,2252.71,1862.91Zm13.93-136.64a86.86,86.86,0,0,0,0,122.7h0a86.73,86.73,0,1,0,0-122.7Z" transform="translate(-518.3 -687.89)"/><path class="cls-1" d="M2754.18,1846.14a66.39,66.39,0,0,0,47.29-19.59,9.85,9.85,0,1,0-13.93-13.93,47.17,47.17,0,0,1-66.71-66.71A9.85,9.85,0,0,0,2706.9,1732a66.88,66.88,0,0,0,47.28,114.16Z" transform="translate(-518.3 -687.89)"/><path class="cls-1" d="M3104.35,1862.91a106.6,106.6,0,1,1,75.28,31.13A106.59,106.59,0,0,1,3104.35,1862.91Zm13.93-136.64a86.86,86.86,0,0,0,0,122.7h0a86.73,86.73,0,1,0,0-122.7Z" transform="translate(-518.3 -687.89)"/><path class="cls-1" d="M3605.82,1846.14a66.39,66.39,0,0,0,47.29-19.59,9.85,9.85,0,1,0-13.94-13.93,47.17,47.17,0,1,1-66.7-66.71,9.85,9.85,0,0,0-13.94-13.93,66.88,66.88,0,0,0,47.29,114.16Z" transform="translate(-518.3 -687.89)"/><path class="cls-1" d="M3956,1862.91a106.61,106.61,0,1,1,75.29,31.13A106.61,106.61,0,0,1,3956,1862.91Zm13.94-136.64a86.86,86.86,0,0,0,0,122.7h0a86.73,86.73,0,1,0,0-122.7Z" transform="translate(-518.3 -687.89)"/><path class="cls-1" d="M4457.46,1846.14a66.41,66.41,0,0,0,47.29-19.59,9.85,9.85,0,1,0-13.94-13.93,47.17,47.17,0,0,1-66.7-66.71,9.85,9.85,0,0,0-13.94-13.93,66.88,66.88,0,0,0,47.29,114.16Z" transform="translate(-518.3 -687.89)"/><path class="cls-1" d="M4807.62,1862.91a106.61,106.61,0,1,1,75.29,31.13A106.61,106.61,0,0,1,4807.62,1862.91Zm13.94-136.64a86.86,86.86,0,0,0,0,122.7h0a86.73,86.73,0,1,0,0-122.7Z" transform="translate(-518.3 -687.89)"/><path class="cls-1" d="M5309.1,1846.14a66.41,66.41,0,0,0,47.29-19.59,9.85,9.85,0,0,0-13.94-13.93,47.17,47.17,0,0,1-66.7-66.71,9.85,9.85,0,1,0-13.94-13.93,66.88,66.88,0,0,0,47.29,114.16Z" transform="translate(-518.3 -687.89)"/><path class="cls-1" d="M5659.26,1862.91a106.61,106.61,0,1,1,75.29,31.13A106.59,106.59,0,0,1,5659.26,1862.91Zm13.94-136.64a86.86,86.86,0,0,0,0,122.7h0a86.73,86.73,0,1,0,0-122.7Z" transform="translate(-518.3 -687.89)"/><path class="cls-1" d="M6160.74,1846.14a66.39,66.39,0,0,0,47.28-19.59,9.85,9.85,0,0,0-13.93-13.93,47.17,47.17,0,0,1-66.71-66.71,9.85,9.85,0,0,0-13.93-13.93,66.88,66.88,0,0,0,47.29,114.16Z" transform="translate(-518.3 -687.89)"/><path class="cls-1" d="M6510.9,1862.91a106.6,106.6,0,1,1,75.29,31.13A106.59,106.59,0,0,1,6510.9,1862.91Zm13.93-136.64a86.86,86.86,0,0,0,0,122.7h0a86.73,86.73,0,1,0,0-122.7Z" transform="translate(-518.3 -687.89)"/><path class="cls-1" d="M7012.37,1846.14a66.39,66.39,0,0,0,47.29-19.59,9.85,9.85,0,0,0-13.93-13.93,47.17,47.17,0,0,1-66.71-66.71,9.85,9.85,0,0,0-13.94-13.93,66.88,66.88,0,0,0,47.29,114.16Z" transform="translate(-518.3 -687.89)"/><path class="cls-1" d="M7362.53,1862.91a106.61,106.61,0,1,1,75.29,31.13A106.61,106.61,0,0,1,7362.53,1862.91Zm13.94-136.64a86.86,86.86,0,0,0,0,122.7h0a86.73,86.73,0,1,0,0-122.7Z" transform="translate(-518.3 -687.89)"/><path class="cls-1" d="M7864,1846.14a66.41,66.41,0,0,0,47.29-19.59,9.85,9.85,0,0,0-13.94-13.93,47.17,47.17,0,0,1-66.7-66.71,9.85,9.85,0,1,0-13.94-13.93A66.88,66.88,0,0,0,7864,1846.14Z" transform="translate(-518.3 -687.89)"/><path class="cls-1" d="M8214.17,1862.91a106.61,106.61,0,1,1,75.29,31.13A106.61,106.61,0,0,1,8214.17,1862.91Zm13.94-136.64a86.86,86.86,0,0,0,0,122.7h0a86.73,86.73,0,1,0,0-122.7Z" transform="translate(-518.3 -687.89)"/><path class="cls-1" d="M8715.65,1846.14a66.41,66.41,0,0,0,47.29-19.59,9.85,9.85,0,1,0-13.94-13.93,47.17,47.17,0,0,1-66.7-66.71,9.85,9.85,0,0,0-13.94-13.93,66.88,66.88,0,0,0,47.29,114.16Z" transform="translate(-518.3 -687.89)"/><path class="cls-1" d="M8283,2318.84a66.41,66.41,0,0,1-47.29-19.59,9.85,9.85,0,0,1,13.94-13.93,47.17,47.17,0,1,0,66.7-66.71,9.85,9.85,0,0,1,13.94-13.93A66.88,66.88,0,0,1,8283,2318.84Z" transform="translate(-518.3 -687.89)"/><path class="cls-1" d="M985.07,2335.61a106.61,106.61,0,1,1,75.29,31.13A106.61,106.61,0,0,1,985.07,2335.61ZM999,2199a86.86,86.86,0,0,0,0,122.7h0a86.73,86.73,0,1,0,0-122.7Z" transform="translate(-518.3 -687.89)"/><path class="cls-1" d="M7431.31,2318.84a66.41,66.41,0,0,1-47.29-19.59,9.85,9.85,0,1,1,13.94-13.93,47.17,47.17,0,0,0,66.7-66.71,9.85,9.85,0,1,1,13.94-13.93,66.88,66.88,0,0,1-47.29,114.16Z" transform="translate(-518.3 -687.89)"/><path class="cls-1" d="M1836.71,2335.61a106.61,106.61,0,1,1,75.29,31.13A106.59,106.59,0,0,1,1836.71,2335.61ZM1850.65,2199a86.86,86.86,0,0,0,0,122.7h0a86.73,86.73,0,1,0,0-122.7Z" transform="translate(-518.3 -687.89)"/><path class="cls-1" d="M6579.67,2318.84a66.43,66.43,0,0,1-47.29-19.59,9.85,9.85,0,0,1,13.94-13.93,47.17,47.17,0,0,0,66.71-66.71,9.85,9.85,0,0,1,13.93-13.93,66.88,66.88,0,0,1-47.29,114.16Z" transform="translate(-518.3 -687.89)"/><path class="cls-1" d="M2688.35,2335.61a106.6,106.6,0,1,1,75.29,31.13A106.59,106.59,0,0,1,2688.35,2335.61ZM2702.28,2199a86.86,86.86,0,0,0,0,122.7h0a86.73,86.73,0,1,0,0-122.7Z" transform="translate(-518.3 -687.89)"/><path class="cls-1" d="M5728,2318.84a66.39,66.39,0,0,1-47.29-19.59,9.85,9.85,0,1,1,13.93-13.93,47.17,47.17,0,0,0,66.71-66.71,9.85,9.85,0,1,1,13.93-13.93A66.88,66.88,0,0,1,5728,2318.84Z" transform="translate(-518.3 -687.89)"/><path class="cls-1" d="M3540,2335.61a106.61,106.61,0,1,1,75.29,31.13A106.61,106.61,0,0,1,3540,2335.61ZM3553.92,2199a86.86,86.86,0,0,0,0,122.7h0a86.73,86.73,0,1,0,0-122.7Z" transform="translate(-518.3 -687.89)"/><path class="cls-1" d="M4876.4,2318.84a66.39,66.39,0,0,1-47.29-19.59,9.85,9.85,0,1,1,13.94-13.93,47.17,47.17,0,0,0,66.7-66.71,9.85,9.85,0,1,1,13.94-13.93,66.88,66.88,0,0,1-47.29,114.16Z" transform="translate(-518.3 -687.89)"/><path class="cls-1" d="M4391.62,2335.61a106.61,106.61,0,1,1,75.29,31.13A106.61,106.61,0,0,1,4391.62,2335.61ZM4405.56,2199a86.86,86.86,0,0,0,0,122.7h0a86.73,86.73,0,1,0,0-122.7Z" transform="translate(-518.3 -687.89)"/><path class="cls-1" d="M4024.76,2318.84a66.41,66.41,0,0,1-47.29-19.59,9.85,9.85,0,1,1,13.94-13.93,47.17,47.17,0,1,0,66.7-66.71,9.85,9.85,0,1,1,13.94-13.93,66.88,66.88,0,0,1-47.29,114.16Z" transform="translate(-518.3 -687.89)"/><path class="cls-1" d="M5243.26,2335.61a106.61,106.61,0,1,1,75.29,31.13A106.61,106.61,0,0,1,5243.26,2335.61ZM5257.2,2199a86.86,86.86,0,0,0,0,122.7h0a86.73,86.73,0,1,0,0-122.7Z" transform="translate(-518.3 -687.89)"/><path class="cls-1" d="M3173.12,2318.84a66.41,66.41,0,0,1-47.29-19.59,9.85,9.85,0,1,1,13.94-13.93,47.17,47.17,0,0,0,66.7-66.71,9.85,9.85,0,1,1,13.94-13.93,66.88,66.88,0,0,1-47.29,114.16Z" transform="translate(-518.3 -687.89)"/><path class="cls-1" d="M6094.9,2335.61a106.61,106.61,0,1,1,75.29,31.13A106.59,106.59,0,0,1,6094.9,2335.61ZM6108.83,2199a86.86,86.86,0,0,0,0,122.7h0a86.73,86.73,0,1,0,0-122.7Z" transform="translate(-518.3 -687.89)"/><path class="cls-1" d="M2321.48,2318.84a66.39,66.39,0,0,1-47.28-19.59,9.85,9.85,0,1,1,13.93-13.93,47.17,47.17,0,0,0,66.71-66.71,9.85,9.85,0,0,1,13.93-13.93,66.88,66.88,0,0,1-47.29,114.16Z" transform="translate(-518.3 -687.89)"/><path class="cls-1" d="M6946.54,2335.61a106.6,106.6,0,1,1,75.28,31.13A106.59,106.59,0,0,1,6946.54,2335.61ZM6960.47,2199a86.86,86.86,0,0,0,0,122.7h0a86.73,86.73,0,1,0,0-122.7Z" transform="translate(-518.3 -687.89)"/><path class="cls-1" d="M1469.85,2318.84a66.39,66.39,0,0,1-47.29-19.59,9.85,9.85,0,1,1,13.93-13.93,47.17,47.17,0,0,0,66.71-66.71,9.85,9.85,0,0,1,13.94-13.93,66.88,66.88,0,0,1-47.29,114.16Z" transform="translate(-518.3 -687.89)"/><path class="cls-1" d="M7798.17,2335.61a106.61,106.61,0,1,1,75.29,31.13A106.61,106.61,0,0,1,7798.17,2335.61ZM7812.11,2199a86.86,86.86,0,0,0,0,122.7h0a86.73,86.73,0,1,0,0-122.7Z" transform="translate(-518.3 -687.89)"/><path class="cls-1" d="M8611.64,2335.61a106.61,106.61,0,1,1,75.29,31.13A106.59,106.59,0,0,1,8611.64,2335.61ZM8625.58,2199a86.86,86.86,0,0,0,0,122.7h0a86.73,86.73,0,1,0,0-122.7Z" transform="translate(-518.3 -687.89)"/><path class="cls-1" d="M618.21,2318.84a66.39,66.39,0,0,1-47.29-19.59,9.85,9.85,0,1,1,13.94-13.93,47.17,47.17,0,1,0,66.7-66.71,9.85,9.85,0,0,1,13.94-13.93,66.88,66.88,0,0,1-47.29,114.16Z" transform="translate(-518.3 -687.89)"/><path class="cls-1" d="M549.43,2856.21a106.61,106.61,0,1,1,75.29,31.13A106.61,106.61,0,0,1,549.43,2856.21Zm13.94-136.64a86.86,86.86,0,0,0,0,122.7h0a86.73,86.73,0,1,0,0-122.7Z" transform="translate(-518.3 -687.89)"/><path class="cls-1" d="M1050.91,2839.44a66.41,66.41,0,0,0,47.29-19.59,9.85,9.85,0,0,0-13.94-13.93,47.17,47.17,0,1,1-66.7-66.71,9.85,9.85,0,1,0-13.94-13.93,66.88,66.88,0,0,0,47.29,114.16Z" transform="translate(-518.3 -687.89)"/><path class="cls-1" d="M1401.07,2856.21a106.61,106.61,0,1,1,75.29,31.13A106.61,106.61,0,0,1,1401.07,2856.21ZM1415,2719.57a86.86,86.86,0,0,0,0,122.7h0a86.73,86.73,0,1,0,0-122.7Z" transform="translate(-518.3 -687.89)"/><path class="cls-1" d="M1902.55,2839.44a66.43,66.43,0,0,0,47.29-19.59,9.85,9.85,0,0,0-13.94-13.93,47.17,47.17,0,0,1-66.71-66.71,9.85,9.85,0,1,0-13.93-13.93,66.88,66.88,0,0,0,47.29,114.16Z" transform="translate(-518.3 -687.89)"/><path class="cls-1" d="M2252.71,2856.21a106.61,106.61,0,1,1,75.29,31.13A106.59,106.59,0,0,1,2252.71,2856.21Zm13.93-136.64a86.86,86.86,0,0,0,0,122.7h0a86.73,86.73,0,1,0,0-122.7Z" transform="translate(-518.3 -687.89)"/><path class="cls-1" d="M2754.18,2839.44a66.39,66.39,0,0,0,47.29-19.59,9.85,9.85,0,0,0-13.93-13.93,47.17,47.17,0,0,1-66.71-66.71,9.85,9.85,0,0,0-13.93-13.93,66.88,66.88,0,0,0,47.28,114.16Z" transform="translate(-518.3 -687.89)"/><path class="cls-1" d="M3104.35,2856.21a106.6,106.6,0,1,1,75.28,31.13A106.59,106.59,0,0,1,3104.35,2856.21Zm13.93-136.64a86.86,86.86,0,0,0,0,122.7h0a86.73,86.73,0,1,0,0-122.7Z" transform="translate(-518.3 -687.89)"/><path class="cls-1" d="M3605.82,2839.44a66.39,66.39,0,0,0,47.29-19.59,9.85,9.85,0,0,0-13.94-13.93,47.17,47.17,0,1,1-66.7-66.71,9.85,9.85,0,1,0-13.94-13.93,66.88,66.88,0,0,0,47.29,114.16Z" transform="translate(-518.3 -687.89)"/><path class="cls-1" d="M3956,2856.21a106.61,106.61,0,1,1,75.29,31.13A106.61,106.61,0,0,1,3956,2856.21Zm13.94-136.64a86.86,86.86,0,0,0,0,122.7h0a86.73,86.73,0,1,0,0-122.7Z" transform="translate(-518.3 -687.89)"/><path class="cls-1" d="M4457.46,2839.44a66.41,66.41,0,0,0,47.29-19.59,9.85,9.85,0,1,0-13.94-13.93,47.17,47.17,0,0,1-66.7-66.71,9.85,9.85,0,0,0-13.94-13.93,66.88,66.88,0,0,0,47.29,114.16Z" transform="translate(-518.3 -687.89)"/><path class="cls-1" d="M4807.62,2856.21a106.61,106.61,0,1,1,75.29,31.13A106.61,106.61,0,0,1,4807.62,2856.21Zm13.94-136.64a86.86,86.86,0,0,0,0,122.7h0a86.73,86.73,0,1,0,0-122.7Z" transform="translate(-518.3 -687.89)"/><path class="cls-1" d="M5309.1,2839.44a66.41,66.41,0,0,0,47.29-19.59,9.85,9.85,0,0,0-13.94-13.93,47.17,47.17,0,0,1-66.7-66.71,9.85,9.85,0,1,0-13.94-13.93,66.88,66.88,0,0,0,47.29,114.16Z" transform="translate(-518.3 -687.89)"/><path class="cls-1" d="M5659.26,2856.21a106.61,106.61,0,1,1,75.29,31.13A106.59,106.59,0,0,1,5659.26,2856.21Zm13.94-136.64a86.86,86.86,0,0,0,0,122.7h0a86.73,86.73,0,1,0,0-122.7Z" transform="translate(-518.3 -687.89)"/><path class="cls-1" d="M6160.74,2839.44a66.39,66.39,0,0,0,47.28-19.59,9.85,9.85,0,0,0-13.93-13.93,47.17,47.17,0,0,1-66.71-66.71,9.85,9.85,0,1,0-13.93-13.93,66.88,66.88,0,0,0,47.29,114.16Z" transform="translate(-518.3 -687.89)"/><path class="cls-1" d="M6510.9,2856.21a106.6,106.6,0,1,1,75.29,31.13A106.59,106.59,0,0,1,6510.9,2856.21Zm13.93-136.64a86.86,86.86,0,0,0,0,122.7h0a86.73,86.73,0,1,0,0-122.7Z" transform="translate(-518.3 -687.89)"/><path class="cls-1" d="M7012.37,2839.44a66.39,66.39,0,0,0,47.29-19.59,9.85,9.85,0,0,0-13.93-13.93,47.17,47.17,0,0,1-66.71-66.71,9.85,9.85,0,1,0-13.94-13.93,66.88,66.88,0,0,0,47.29,114.16Z" transform="translate(-518.3 -687.89)"/><path class="cls-1" d="M7362.53,2856.21a106.61,106.61,0,1,1,75.29,31.13A106.61,106.61,0,0,1,7362.53,2856.21Zm13.94-136.64a86.86,86.86,0,0,0,0,122.7h0a86.73,86.73,0,1,0,0-122.7Z" transform="translate(-518.3 -687.89)"/><path class="cls-1" d="M7864,2839.44a66.41,66.41,0,0,0,47.29-19.59,9.85,9.85,0,0,0-13.94-13.93,47.17,47.17,0,0,1-66.7-66.71,9.85,9.85,0,1,0-13.94-13.93A66.88,66.88,0,0,0,7864,2839.44Z" transform="translate(-518.3 -687.89)"/><path class="cls-1" d="M8214.17,2856.21a106.61,106.61,0,1,1,75.29,31.13A106.61,106.61,0,0,1,8214.17,2856.21Zm13.94-136.64a86.86,86.86,0,0,0,0,122.7h0a86.73,86.73,0,1,0,0-122.7Z" transform="translate(-518.3 -687.89)"/><path class="cls-1" d="M8715.65,2839.44a66.41,66.41,0,0,0,47.29-19.59,9.85,9.85,0,1,0-13.94-13.93,47.17,47.17,0,0,1-66.7-66.71,9.85,9.85,0,1,0-13.94-13.93,66.88,66.88,0,0,0,47.29,114.16Z" transform="translate(-518.3 -687.89)"/><path class="cls-1" d="M8283,3312.14a66.45,66.45,0,0,1-47.29-19.59,9.85,9.85,0,0,1,13.94-13.93,47.17,47.17,0,1,0,66.7-66.71,9.85,9.85,0,0,1,13.94-13.93A66.88,66.88,0,0,1,8283,3312.14Z" transform="translate(-518.3 -687.89)"/><path class="cls-1" d="M985.07,3328.91a106.61,106.61,0,1,1,75.29,31.13A106.61,106.61,0,0,1,985.07,3328.91ZM999,3192.26A86.87,86.87,0,0,0,999,3315h0a86.73,86.73,0,1,0,0-122.71Z" transform="translate(-518.3 -687.89)"/><path class="cls-1" d="M7431.31,3312.14a66.45,66.45,0,0,1-47.29-19.59,9.85,9.85,0,1,1,13.94-13.93,47.17,47.17,0,0,0,66.7-66.71A9.85,9.85,0,1,1,7478.6,3198a66.88,66.88,0,0,1-47.29,114.16Z" transform="translate(-518.3 -687.89)"/><path class="cls-1" d="M1836.71,3328.91A106.61,106.61,0,1,1,1912,3360,106.59,106.59,0,0,1,1836.71,3328.91Zm13.94-136.65a86.87,86.87,0,0,0,0,122.71h0a86.73,86.73,0,1,0,0-122.71Z" transform="translate(-518.3 -687.89)"/><path class="cls-1" d="M6579.67,3312.14a66.47,66.47,0,0,1-47.29-19.59,9.85,9.85,0,0,1,13.94-13.93,47.17,47.17,0,0,0,66.71-66.71A9.85,9.85,0,1,1,6627,3198a66.88,66.88,0,0,1-47.29,114.16Z" transform="translate(-518.3 -687.89)"/><path class="cls-1" d="M2688.35,3328.91a106.6,106.6,0,1,1,75.29,31.13A106.59,106.59,0,0,1,2688.35,3328.91Zm13.93-136.65a86.87,86.87,0,0,0,0,122.71h0a86.73,86.73,0,1,0,0-122.71Z" transform="translate(-518.3 -687.89)"/><path class="cls-1" d="M5728,3312.14a66.44,66.44,0,0,1-47.29-19.59,9.85,9.85,0,0,1,13.93-13.93,47.17,47.17,0,0,0,66.71-66.71,9.85,9.85,0,1,1,13.93-13.93A66.88,66.88,0,0,1,5728,3312.14Z" transform="translate(-518.3 -687.89)"/><path class="cls-1" d="M3540,3328.91a106.61,106.61,0,1,1,75.29,31.13A106.61,106.61,0,0,1,3540,3328.91Zm13.94-136.65a86.87,86.87,0,0,0,0,122.71h0a86.73,86.73,0,1,0,0-122.71Z" transform="translate(-518.3 -687.89)"/><path class="cls-1" d="M4876.4,3312.14a66.44,66.44,0,0,1-47.29-19.59,9.85,9.85,0,1,1,13.94-13.93,47.17,47.17,0,0,0,66.7-66.71,9.85,9.85,0,1,1,13.94-13.93,66.88,66.88,0,0,1-47.29,114.16Z" transform="translate(-518.3 -687.89)"/><path class="cls-1" d="M4391.62,3328.91a106.61,106.61,0,1,1,75.29,31.13A106.61,106.61,0,0,1,4391.62,3328.91Zm13.94-136.65a86.87,86.87,0,0,0,0,122.71h0a86.73,86.73,0,1,0,0-122.71Z" transform="translate(-518.3 -687.89)"/><path class="cls-1" d="M4024.76,3312.14a66.45,66.45,0,0,1-47.29-19.59,9.85,9.85,0,1,1,13.94-13.93,47.17,47.17,0,1,0,66.7-66.71,9.85,9.85,0,1,1,13.94-13.93,66.88,66.88,0,0,1-47.29,114.16Z" transform="translate(-518.3 -687.89)"/><path class="cls-1" d="M5243.26,3328.91a106.61,106.61,0,1,1,75.29,31.13A106.61,106.61,0,0,1,5243.26,3328.91Zm13.94-136.65a86.87,86.87,0,0,0,0,122.71h0a86.73,86.73,0,1,0,0-122.71Z" transform="translate(-518.3 -687.89)"/><path class="cls-1" d="M3173.12,3312.14a66.45,66.45,0,0,1-47.29-19.59,9.85,9.85,0,0,1,13.94-13.93,47.17,47.17,0,0,0,66.7-66.71,9.85,9.85,0,1,1,13.94-13.93,66.88,66.88,0,0,1-47.29,114.16Z" transform="translate(-518.3 -687.89)"/><path class="cls-1" d="M6094.9,3328.91a106.61,106.61,0,1,1,75.29,31.13A106.59,106.59,0,0,1,6094.9,3328.91Zm13.93-136.65a86.87,86.87,0,0,0,0,122.71h0a86.73,86.73,0,1,0,0-122.71Z" transform="translate(-518.3 -687.89)"/><path class="cls-1" d="M2321.48,3312.14a66.43,66.43,0,0,1-47.28-19.59,9.85,9.85,0,0,1,13.93-13.93,47.17,47.17,0,0,0,66.71-66.71,9.85,9.85,0,0,1,13.93-13.93,66.88,66.88,0,0,1-47.29,114.16Z" transform="translate(-518.3 -687.89)"/><path class="cls-1" d="M6946.54,3328.91a106.6,106.6,0,1,1,75.28,31.13A106.59,106.59,0,0,1,6946.54,3328.91Zm13.93-136.65a86.87,86.87,0,0,0,0,122.71h0a86.73,86.73,0,1,0,0-122.71Z" transform="translate(-518.3 -687.89)"/><path class="cls-1" d="M1469.85,3312.14a66.44,66.44,0,0,1-47.29-19.59,9.85,9.85,0,0,1,13.93-13.93,47.17,47.17,0,0,0,66.71-66.71,9.85,9.85,0,1,1,13.94-13.93,66.88,66.88,0,0,1-47.29,114.16Z" transform="translate(-518.3 -687.89)"/><path class="cls-1" d="M7798.17,3328.91a106.61,106.61,0,1,1,75.29,31.13A106.61,106.61,0,0,1,7798.17,3328.91Zm13.94-136.65a86.87,86.87,0,0,0,0,122.71h0a86.73,86.73,0,1,0,0-122.71Z" transform="translate(-518.3 -687.89)"/><path class="cls-1" d="M8611.64,3328.91a106.61,106.61,0,1,1,75.29,31.13A106.59,106.59,0,0,1,8611.64,3328.91Zm13.94-136.65a86.87,86.87,0,0,0,0,122.71h0a86.73,86.73,0,1,0,0-122.71Z" transform="translate(-518.3 -687.89)"/><path class="cls-1" d="M618.21,3312.14a66.44,66.44,0,0,1-47.29-19.59,9.85,9.85,0,0,1,13.94-13.93,47.17,47.17,0,1,0,66.7-66.71A9.85,9.85,0,1,1,665.5,3198a66.88,66.88,0,0,1-47.29,114.16Z" transform="translate(-518.3 -687.89)"/></svg>